<?xml version="1.0" encoding="utf-8"?>
<!-- Generator: Adobe Illustrator 27.8.1, SVG Export Plug-In . SVG Version: 6.00 Build 0)  -->
<svg version="1.1" id="Слой_2" xmlns="http://www.w3.org/2000/svg" xmlns:xlink="http://www.w3.org/1999/xlink" x="0px" y="0px"
	 viewBox="0 0 48 48" style="enable-background:new 0 0 48 48;" xml:space="preserve">
<style type="text/css">
	.st0{fill:#007BFF;}
</style>
<path class="st0" d="M1.5,17.7L23.7,4.2c0.2-0.1,0.4-0.1,0.6,0L32.1,9c0.4,0.2,0.9,0,0.9-0.5V6.1C33,6,33,6,33,5.9l0-0.1
	C33.4,5,34,4.4,34.7,4.1L34.9,4C35,4,35,4,35.1,4h3.3C38.7,4,39,4.3,39,4.6v8.3c0,0.2,0.1,0.4,0.3,0.5l7.2,4.4
	c0.3,0.2,0.3,0.5,0.2,0.8l-0.6,0.9c0,0-0.1,0.1-0.1,0.1L46,19.6c-1,0.9-2.2,1.5-3.5,1.7l0,0c-0.3,0-0.5,0.3-0.5,0.6v15.1
	c0,0.1,0,0.1,0,0.2l-0.2,0.4c-1,2.4-2.8,4.2-5.1,5.2L36.1,43c-0.1,0-0.1,0-0.2,0H6.6C6.3,43,6,42.7,6,42.4V22.1
	c0-0.5-0.3-0.5-0.7-0.7l-0.8-0.2c-0.7-0.2-1.3-0.6-1.9-1.1L2,19.5c0,0-0.1-0.1-0.1-0.1l-0.6-0.9C1.2,18.2,1.3,17.9,1.5,17.7z"/>
</svg>
