<?xml version="1.0" encoding="utf-8"?>
<!-- Generator: Adobe Illustrator 27.8.1, SVG Export Plug-In . SVG Version: 6.00 Build 0)  -->
<svg version="1.1" id="Слой_1" xmlns="http://www.w3.org/2000/svg" xmlns:xlink="http://www.w3.org/1999/xlink" x="0px" y="0px"
	 viewBox="0 0 48 48" style="enable-background:new 0 0 48 48;" xml:space="preserve">
<style type="text/css">
	.st0{fill:#007BFF;}
</style>
<path class="st0" d="M42,21.4V37c0,3.3-2.7,6-6,6H6V21.4c0.5-0.1,1-0.2,1.4-0.5L24,10.7l16.6,10.1C41,21.1,41.5,21.3,42,21.4z"/>
<path class="st0" d="M30,43H18V28c0-1.7,1.3-3,3-3h9V43z"/>
<path class="st0" d="M39,4v9.2l-6-3.7V6c0-1.1,0.9-2,2-2H39z"/>
<path class="st0" d="M24,4L0.1,18.6l0.9,1.5c1.2,2,3.8,2.6,5.7,1.4L24,10.9l17.2,10.5c2,1.2,4.5,0.6,5.7-1.4l0.9-1.5L24,4z"/>
</svg>
