<?xml version="1.0" encoding="utf-8"?>
<!-- Generator: Adobe Illustrator 27.8.1, SVG Export Plug-In . SVG Version: 6.00 Build 0)  -->
<svg version="1.1" id="Слой_1" xmlns="http://www.w3.org/2000/svg" xmlns:xlink="http://www.w3.org/1999/xlink" x="0px" y="0px"
	 viewBox="0 0 8192 8192" style="enable-background:new 0 0 8192 8192;" xml:space="preserve">
<style type="text/css">
	.st0{fill:#007BFF;}
	.st1{fill:#007BFF;stroke:#000000;stroke-width:0.5689;stroke-miterlimit:5.6889;}
	.st2{fill:none;stroke:#000000;stroke-width:0.5689;stroke-miterlimit:5.6889;}
	.st3{fill:none;}
</style>
<path class="st0" d="M1320.7,3436.2V5913h1221.2l151.9,65.3c437.5,188.1,771.7,557,915.9,1010.9l0,0h630.6l0,0
	c141.7-493.2,522.3-881.8,1012.5-1033.6l164.6-51l995.4,14.6c81.4,1.2,148.1-64.5,148.1-145.9V3425.6"/>
<path class="st1" d="M3912.4,960.8"/>
<path class="st2" d="M7791.3,2807.6"/>
<path class="st0" d="M7336.1,6022.3L7101.3,6257c-95.2,95.2-148.6,224.2-148.6,358.8v11.8c0,134.6,53.5,263.7,148.6,358.8
	l445.8,445.8l496.3-496.3c95.2-95.2,148.6-224.2,148.6-358.8l0,0c0-134.6-53.5-263.7-148.6-358.8l-200.3-200.3"/>
<path class="st1" d="M7336.1,3048.9"/>
<path class="st0" d="M7237.9,3096.6l98.1,2925.7c77.9-0.6,155.9-1.3,233.8-1.9c91.1-0.8,182.1-1.5,273.2-2.3
	c-32.9-1055.9-65.8-2111.8-98.7-3167.7"/>
<path class="st0" d="M7336.1,6022.3l108.6-65.7c79.4-48,177.9-51.5,260.5-9.2l137.9,70.7"/>
<path class="st3" d="M7902.3,5733.9"/>
<path class="st0" d="M49.5,2673l3476.7-1656.4c77.1-36.8,161.5-55.8,247-55.8H4120c117.9,0,234.2,27,340.1,78.9l3284.7,1611.8
	c82.7,40.6,82.5,158.6-0.4,198.9l-3639.5,1769c-95,46.2-206,46.6-301.4,1.1L49.4,2829.8C-16.5,2798.3-16.5,2704.4,49.5,2673z"/>
</svg>
