<?xml version="1.0" encoding="utf-8"?>
<!-- Generator: Adobe Illustrator 27.8.1, SVG Export Plug-In . SVG Version: 6.00 Build 0)  -->
<svg version="1.1" id="Слой_1" xmlns="http://www.w3.org/2000/svg" xmlns:xlink="http://www.w3.org/1999/xlink" x="0px" y="0px"
	 viewBox="0 0 14400 14400" style="enable-background:new 0 0 14400 14400;" xml:space="preserve">
<style type="text/css">
	.st0{fill:url(#SVGID_1_);}
	.st1{fill:none;stroke:#000000;stroke-miterlimit:10;}
	.st2{fill:url(#SVGID_00000098193202458457001100000016117914668718778529_);}
	.st3{fill:url(#SVGID_00000010310617415065188900000003518499947008833672_);}
	.st4{fill:url(#SVGID_00000061457184716841145920000016580902955410127772_);}
	.st5{fill:none;}
	.st6{fill:url(#SVGID_00000104681059341890079840000011208712307362401180_);}
</style>
<linearGradient id="SVGID_1_" gradientUnits="userSpaceOnUse" x1="9112.6738" y1="14295.4805" x2="3806.8638" y2="-483.9353">
	<stop  offset="0" style="stop-color:#FFFFFF"/>
	<stop  offset="1" style="stop-color:#1D1D1B"/>
</linearGradient>
<path class="st0" d="M2321.59,6040.18v4353.74h2146.64l267.04,114.83c769.04,330.68,1356.52,979.1,1609.95,1776.94l0,0h1108.46l0,0
	c249.02-866.95,918.15-1550.05,1779.77-1816.92l289.35-89.62l1749.67,25.73c143.16,2.11,260.33-113.36,260.33-256.53V6021.65"/>
<path class="st1" d="M6877.28,1688.85"/>
<path class="st1" d="M13695.58,4935.17"/>
<linearGradient id="SVGID_00000072977610118498987720000005441807207092412329_" gradientUnits="userSpaceOnUse" x1="14394.5879" y1="13905.1162" x2="12325.4697" y2="9515.6289">
	<stop  offset="0" style="stop-color:#FFFFFF"/>
	<stop  offset="1" style="stop-color:#1D1D1B"/>
</linearGradient>
<path style="fill:url(#SVGID_00000072977610118498987720000005441807207092412329_);" d="M12895.43,10586.05l-412.67,412.66
	c-167.28,167.29-261.27,394.17-261.27,630.75v20.7c0,236.58,93.98,463.46,261.27,630.75l783.65,783.65l872.32-872.32
	c167.29-167.29,261.27-394.17,261.27-630.75v0c0-236.58-93.98-463.46-261.27-630.75l-352.08-352.08"/>
<path class="st1" d="M12895.43,5359.33"/>
<linearGradient id="SVGID_00000183245843127838187530000004433457216349933736_" gradientUnits="userSpaceOnUse" x1="16747.4902" y1="9747.9941" x2="8485.7969" y2="5136.8169">
	<stop  offset="0" style="stop-color:#FFFFFF"/>
	<stop  offset="1" style="stop-color:#1D1D1B"/>
</linearGradient>
<path style="fill:url(#SVGID_00000183245843127838187530000004433457216349933736_);" d="M12722.92,5443.18l172.51,5142.88
	c136.99-1.14,273.98-2.27,410.97-3.41c160.08-1.33,320.17-2.66,480.25-3.98c-57.86-1856.05-115.72-3712.1-173.58-5568.15"/>
<linearGradient id="SVGID_00000176739642898399650650000010248879873921101992_" gradientUnits="userSpaceOnUse" x1="14814.1094" y1="13707.3613" x2="12744.9912" y2="9317.875">
	<stop  offset="0" style="stop-color:#FFFFFF"/>
	<stop  offset="1" style="stop-color:#1D1D1B"/>
</linearGradient>
<path style="fill:url(#SVGID_00000176739642898399650650000010248879873921101992_);" d="M12895.43,10586.05l190.87-115.47
	c139.52-84.4,312.8-90.51,457.92-16.15l242.44,124.23"/>
<path class="st5" d="M13890.75,10079.05"/>
<linearGradient id="SVGID_00000121960627612723594780000004415142909580681362_" gradientUnits="userSpaceOnUse" x1="5702.6914" y1="2853.4629" x2="9072.3984" y2="8602.6553">
	<stop  offset="0" style="stop-color:#727272"/>
	<stop  offset="1" style="stop-color:#FFFFFF"/>
</linearGradient>
<path style="fill:url(#SVGID_00000121960627612723594780000004415142909580681362_);" d="M86.99,4698.63l6111.38-2911.66
	c135.6-64.6,283.91-98.13,434.12-98.13h609.63c207.25,0,411.75,47.47,597.81,138.77l5773.8,2833.22
	c145.45,71.37,145.06,278.85-0.66,349.67L7215.57,8120.07c-167.08,81.21-362.05,81.93-529.72,1.94L86.92,4974.19
	C-29,4918.9-28.96,4753.87,86.99,4698.63z"/>
</svg>
