<?xml version="1.0" encoding="utf-8"?>
<!-- Generator: Adobe Illustrator 27.8.1, SVG Export Plug-In . SVG Version: 6.00 Build 0)  -->
<svg version="1.1" id="Слой_1" xmlns="http://www.w3.org/2000/svg" xmlns:xlink="http://www.w3.org/1999/xlink" x="0px" y="0px"
	 viewBox="0 0 96 96" style="enable-background:new 0 0 96 96;" xml:space="preserve">
<style type="text/css">
	.st0{fill:#007BFF;}
</style>
<path class="st0" d="M42,8C40,8,38.4,9.4,38,11.2l-1.3,6.9c-3.3,1.2-6.3,3-9,5.2L21.1,21c-1.8-0.6-3.8,0.1-4.8,1.8l-6,10.5
	c-1,1.7-0.6,3.8,0.8,5l5.3,4.6C16.2,44.5,16,46.2,16,48s0.2,3.5,0.5,5.2l-5.3,4.6c-1.4,1.3-1.8,3.4-0.8,5l6,10.5
	c1,1.7,3,2.4,4.8,1.8l6.6-2.3c2.7,2.2,5.7,3.9,9,5.2l1.3,6.9c0.4,1.9,2,3.2,3.9,3.2H54c1.9,0,3.6-1.4,3.9-3.2l1.3-6.9
	c3.3-1.2,6.3-3,9-5.2l6.6,2.3c1.8,0.6,3.8-0.1,4.8-1.8l6-10.5c1-1.7,0.6-3.8-0.8-5l-5.3-4.6c0.3-1.7,0.5-3.4,0.5-5.2
	s-0.2-3.5-0.5-5.2l5.3-4.6c1.4-1.3,1.8-3.4,0.8-5l-6-10.5c-1-1.7-3-2.4-4.8-1.8l-6.6,2.3c-2.7-2.2-5.7-3.9-9-5.2L58,11.2
	C57.6,9.4,56,8,54,8H42z M48,32c8.8,0,16,7.2,16,16s-7.2,16-16,16s-16-7.2-16-16S39.2,32,48,32z"/>
</svg>
